<svg id="Layer_1" data-name="Layer 1" xmlns="http://www.w3.org/2000/svg" xmlns:xlink="http://www.w3.org/1999/xlink" viewBox="0 0 506 461.15"><defs><style>.cls-1{fill:url(#linear-gradient);}</style><linearGradient id="linear-gradient" x1="258" y1="488.58" x2="258" y2="27.42" gradientUnits="userSpaceOnUse"><stop offset="0" stop-color="#28c76f"/><stop offset="0.4" stop-color="#52df91"/><stop offset="0.79" stop-color="#74f3ad"/><stop offset="1" stop-color="#81fbb8"/></linearGradient></defs><title>GrowthHacks</title><path class="cls-1" d="M94.36,359.56A216.38,216.38,0,0,1,76.44,344V281.86a24.28,24.28,0,0,1,48.56,0v97.81A222.87,222.87,0,0,1,94.36,359.56ZM215,406.67V205.13a24.28,24.28,0,0,0-48.56,0V397.25c2.53.77,5.05,1.55,7.62,2.23A236,236,0,0,0,215,406.67Zm90-9.91V128.39a24.28,24.28,0,1,0-48.56,0V406.52A223.11,223.11,0,0,0,297.36,399C299.94,398.37,302.51,397.59,305.08,396.76Zm90.09-54V51.71a24.28,24.28,0,0,0-48.56,0V378.94a223.46,223.46,0,0,0,30.55-20.35A205.19,205.19,0,0,0,395.17,342.8Zm109.47-73.88-76.3,51.38,19,9.27v.05a259.12,259.12,0,0,1-52.16,55.22,253.65,253.65,0,0,1-90.09,45.65,252.15,252.15,0,0,1-48.56,8.6c-7.09.63-14.28.92-21.46.92-6.7,0-13.41-.24-20-.78a257.05,257.05,0,0,1-48.56-8.3A252.16,252.16,0,0,1,125,415.68a254.39,254.39,0,0,1-48.56-29.77A268.87,268.87,0,0,1,46.91,359.1a23.51,23.51,0,0,0-8.2-5.68,24.32,24.32,0,0,0-13.89-1.51,30.06,30.06,0,0,0-4.9,1.46,11,11,0,0,0-1.56.73,23.73,23.73,0,0,0-5.78,4.08,24.3,24.3,0,0,0-.92,34.33,309.13,309.13,0,0,0,64.78,52.21A295.24,295.24,0,0,0,125,468.42,298.65,298.65,0,0,0,166.48,481,309.3,309.3,0,0,0,215,487.94c6.6.44,13.31.63,20,.63,7.18,0,14.37-.24,21.46-.73a304.3,304.3,0,0,0,48.56-7.24,304.16,304.16,0,0,0,90.09-36.66,307.72,307.72,0,0,0,96.26-92.81L511,360.7Z" transform="translate(-5 -27.42)"/></svg>